<svg width="500" height="500" viewBox="0 0 500 500" fill="none" xmlns="http://www.w3.org/2000/svg">
<g opacity="0.8">
<path fill-rule="evenodd" clip-rule="evenodd" d="M243.564 173.003C243.564 154.934 238.83 139.447 229.394 126.483C213.666 105.369 187.002 94.551 149.313 94H0V398.816H139.23C154.928 398.816 169.451 397.482 182.886 394.726C196.321 391.942 207.933 386.867 217.781 379.413C226.542 372.917 233.833 364.912 239.654 355.428C248.855 341.101 253.441 324.888 253.441 306.82C253.441 289.302 249.414 274.395 241.417 262.156C233.333 249.888 221.456 240.926 205.699 235.242C216.076 230.021 223.926 224.221 229.276 217.898C238.83 206.587 243.564 191.593 243.564 173.003ZM61.601 214.179V146.923H128.864C143.651 146.923 155.822 148.518 165.406 151.679C176.46 156.261 181.986 165.629 181.986 179.869C181.986 192.63 177.782 201.563 169.433 206.61C161.026 211.656 150.119 214.179 136.743 214.179H61.601ZM61.601 264.662V345.956H136.625C150.031 345.956 160.496 344.158 167.934 340.591C181.487 333.92 188.248 321.275 188.248 302.54C188.248 286.646 181.722 275.77 168.581 269.825C161.231 266.519 150.913 264.778 137.683 264.662H61.601ZM319.497 146.124H451.906V108.189H319.497V146.124ZM479.687 211.345C469.339 196.148 456.198 185.011 440.235 177.992C424.301 170.945 406.398 167.407 386.495 167.407C353.011 167.407 325.817 177.876 304.798 198.671C283.837 219.524 273.342 249.483 273.342 288.55C273.342 330.197 284.925 360.302 308.237 378.776C331.432 397.28 358.273 406.503 388.7 406.503C425.536 406.503 454.199 395.54 474.66 373.643C487.772 359.838 495.18 346.236 496.797 332.895H435.796C432.268 339.507 428.152 344.67 423.478 348.411C414.982 355.284 403.899 358.736 390.346 358.736C377.47 358.736 366.504 355.893 357.391 350.238C342.339 341.16 334.46 325.296 333.461 302.703H499.943C500.207 283.242 499.56 268.277 497.944 257.952C495.18 240.29 489.124 224.744 479.687 211.345ZM334.943 263.771C337.118 249.096 342.439 237.466 350.877 228.881C359.314 220.297 371.25 216.004 386.537 216.004C400.648 216.004 412.436 220.035 422.02 228.127C431.486 236.277 436.837 248.11 437.925 263.771H334.943Z" fill="#9A9AAD"/>
</g>
</svg>
