<svg width="500" height="500" viewBox="0 0 500 500" fill="none" xmlns="http://www.w3.org/2000/svg">
<path fill-rule="evenodd" clip-rule="evenodd" d="M239.839 0.0732582C233.672 0.070491 227.958 0.0679268 222.646 0.0762399V0C165.809 0.0635332 154.907 0.444732 126.774 1.7154C97.0406 3.08136 80.8968 8.03695 70.147 12.2301C55.9156 17.7702 45.7503 24.3777 35.0767 35.0513C24.4031 45.7249 17.7829 55.8902 12.2556 70.1216C8.08142 80.8714 3.11313 97.0089 1.75352 126.742C0.292253 158.89 0 168.496 0 249.933C0 331.37 0.292253 341.027 1.75352 373.175C3.10677 402.909 8.08142 419.046 12.2556 429.783C17.7957 444.021 24.4031 454.161 35.0767 464.834C45.7503 475.508 55.9156 482.115 70.147 487.643C80.9032 491.817 97.0406 496.785 126.774 498.158C158.922 499.619 168.573 499.936 250.003 499.936C331.427 499.936 341.084 499.619 373.232 498.158C402.966 496.798 419.116 491.842 429.853 487.649C444.091 482.122 454.224 475.514 464.898 464.841C475.572 454.174 482.192 444.04 487.719 429.808C491.893 419.071 496.861 402.934 498.221 373.2C499.682 341.053 500 331.396 500 250.01C500 168.623 499.682 158.966 498.221 126.819C496.868 97.0851 491.893 80.9477 487.719 70.2105C482.179 55.9791 475.572 45.8138 464.898 35.1402C454.231 24.4666 444.084 17.8592 429.853 12.3318C419.103 8.15766 402.966 3.18937 373.232 1.82976C341.078 0.368493 331.427 0.0762399 250.003 0.0762399L239.839 0.0732582ZM376.192 87.2938C376.192 67.0838 392.584 50.7113 412.787 50.7113V50.6986C432.991 50.6986 449.383 67.0902 449.383 87.2938C449.383 107.497 432.991 123.889 412.787 123.889C392.584 123.889 376.192 107.497 376.192 87.2938ZM249.979 93.482C163.494 93.4853 93.3764 163.606 93.3764 250.091C93.3764 336.579 163.498 406.669 249.986 406.669C336.474 406.669 406.57 336.579 406.57 250.091C406.57 163.604 336.467 93.482 249.979 93.482ZM351.647 250.04C351.647 193.896 306.132 148.387 249.994 148.387C193.85 148.387 148.341 193.896 148.341 250.04C148.341 306.178 193.85 351.694 249.994 351.694C306.132 351.694 351.647 306.178 351.647 250.04Z" fill="#9A9AAD"/>
</svg>
