<svg width="500" height="500" viewBox="0 0 500 500" fill="none" xmlns="http://www.w3.org/2000/svg">
<g clip-path="url(#clip0_33_1123)">
<path fill-rule="evenodd" clip-rule="evenodd" d="M300.908 1.1827C285.568 1.28868 273.217 13.8106 273.323 29.1512C273.429 44.4918 285.951 56.8419 301.292 56.7359L404.671 56.0217L228.267 232.422C217.419 243.27 217.419 260.858 228.267 271.705C239.115 282.553 256.703 282.553 267.551 271.705L443.955 95.3047L443.24 198.681C443.134 214.022 455.485 226.544 470.826 226.65C486.166 226.756 498.689 214.406 498.795 199.065L499.977 27.9692C500.028 20.5358 497.098 13.3921 491.841 8.13579C486.585 2.87951 479.441 -0.0506752 472.008 0.000663416L300.908 1.1827ZM55.5556 83.341C55.5556 68 67.9921 55.5637 83.3333 55.5637H166.667C182.008 55.5637 194.444 43.1274 194.444 27.7864C194.444 12.4455 182.008 0.00915295 166.667 0.00915295H83.3333C37.3096 0.00915295 0 37.3181 0 83.341V416.668C0 462.691 37.3096 500 83.3333 500H416.667C462.69 500 500 462.691 500 416.668V333.336C500 317.995 487.563 305.559 472.222 305.559C456.881 305.559 444.444 317.995 444.444 333.336V416.668C444.444 432.009 432.008 444.445 416.667 444.445H83.3333C67.9921 444.445 55.5556 432.009 55.5556 416.668V83.341Z" fill="#F7F7FA"/>
</g>
<defs>
<clipPath id="clip0_33_1123">
<rect width="500" height="500" fill="white"/>
</clipPath>
</defs>
</svg>
