<svg width="500" height="500" viewBox="0 0 500 500" fill="none" xmlns="http://www.w3.org/2000/svg">
<g clip-path="url(#clip0_33_1123)">
<path opacity="0.8" fill-rule="evenodd" clip-rule="evenodd" d="M4.52887e-10 232.336V473.684C-4.08143e-05 480.648 2.75862 487.328 7.67166 492.26C12.5847 497.193 19.2515 499.976 26.2115 500H267.519C271.191 500.019 274.785 498.943 277.843 496.909C280.9 494.875 283.282 491.974 284.684 488.579C286.086 485.183 286.445 481.447 285.714 477.846C284.982 474.246 283.195 470.946 280.58 468.367L31.6159 219.178C29.0161 216.6 25.7122 214.849 22.1202 214.146C18.5282 213.442 14.8085 213.817 11.429 215.224C8.04947 216.63 5.16119 219.005 3.12756 222.05C1.09392 225.095 0.00576974 228.674 4.52887e-10 232.336V232.336ZM402.18 0C405.839 0.0304693 409.409 1.13784 412.444 3.18412C415.479 5.23039 417.845 8.12502 419.247 11.5073C420.649 14.8897 421.026 18.61 420.329 22.2049C419.633 25.7997 417.894 29.11 415.33 31.7232L323.906 123.017C321.002 125.869 318.707 129.279 317.159 133.044C315.611 136.808 314.842 140.847 314.898 144.917V270.368C314.892 274.03 313.804 277.608 311.771 280.653C309.737 283.698 306.849 286.073 303.469 287.48C300.09 288.886 296.37 289.261 292.778 288.558C289.186 287.854 285.882 286.103 283.282 283.525L31.6159 31.7232C29.0142 29.132 27.239 25.8268 26.5151 22.2259C25.7913 18.625 26.1512 14.8902 27.5495 11.494C28.9477 8.09786 31.3213 5.19299 34.3701 3.14699C37.4188 1.10098 41.0056 0.00582967 44.6766 0H402.18ZM341.11 500H473.788C480.748 499.976 487.415 497.193 492.328 492.26C497.241 487.328 500 480.648 500 473.684V179.794C499.994 176.132 498.906 172.554 496.872 169.509C494.839 166.464 491.951 164.089 488.571 162.682C485.192 161.276 481.472 160.901 477.88 161.604C474.288 162.308 470.984 164.059 468.384 166.636L324.266 310.833C321.374 313.673 319.085 317.07 317.537 320.817C315.989 324.565 315.214 328.587 315.258 332.642V473.864C315.304 480.735 318.034 487.315 322.865 492.199C327.696 497.083 334.244 499.882 341.11 500V500Z" fill="#9A9AAD"/>
</g>
<defs>
<clipPath id="clip0_33_1123">
<rect width="500" height="500" fill="white"/>
</clipPath>
</defs>
</svg>
