<svg width="500" height="500" viewBox="0 0 500 500" fill="none" xmlns="http://www.w3.org/2000/svg">
<g opacity="0.8">
<path fill-rule="evenodd" clip-rule="evenodd" d="M242.779 152.917L243.862 170.788L225.798 168.6C160.046 160.211 102.603 131.762 53.8304 83.9822L29.986 60.2745L23.8443 77.7817C10.8383 116.808 19.1477 158.023 46.2435 185.743C60.6946 201.061 57.4431 203.25 32.515 194.131C23.8443 191.214 16.2575 189.025 15.5349 190.119C13.006 192.672 21.6767 225.863 28.5409 238.993C37.9341 257.23 57.0819 275.102 78.036 285.679L95.7386 294.068L74.7845 294.433C54.5529 294.433 53.8304 294.798 55.998 302.457C63.2236 326.165 91.7645 351.331 123.557 362.273L145.956 369.932L126.447 381.604C97.5449 398.382 63.5849 407.865 29.6248 408.594C13.3673 408.959 0 410.418 0 411.512C0 415.159 44.0759 435.584 69.7266 443.608C146.679 467.316 238.082 457.103 306.725 416.618C355.497 387.804 404.27 330.541 427.03 275.102C439.314 245.559 451.597 191.578 451.597 165.682C451.597 148.905 452.681 146.716 472.912 126.656C484.835 114.984 496.034 102.219 498.202 98.5715C501.815 91.6415 501.453 91.6415 483.028 97.842C452.32 108.784 447.984 107.325 463.158 90.9121C474.357 79.2406 487.725 58.0862 487.725 51.8857C487.725 50.7915 482.306 52.6152 476.164 55.8978C469.661 59.5451 455.21 65.0161 444.371 68.2987L424.862 74.4991L407.16 62.4629C397.405 55.8978 383.677 48.6031 376.451 46.4147C358.026 41.3085 329.846 42.0379 313.228 47.8736C268.068 64.2866 239.527 106.596 242.779 152.917Z" fill="#9A9AAD"/>
</g>
</svg>
