<svg width="500" height="500" viewBox="0 0 500 500" fill="none" xmlns="http://www.w3.org/2000/svg">
<path fill-rule="evenodd" clip-rule="evenodd" d="M274.521 388.83C274.521 388.83 283.545 387.846 288.167 382.973C292.397 378.508 292.251 370.082 292.251 370.082C292.251 370.082 291.688 330.738 310.298 324.929C328.64 319.215 352.19 362.976 377.183 379.804C396.062 392.527 410.393 389.742 410.393 389.742L477.18 388.83C477.18 388.83 512.101 386.717 495.545 359.76C494.176 357.551 485.885 339.812 445.902 303.372C404.01 265.228 409.635 271.397 460.061 205.408C490.776 165.223 503.053 140.69 499.213 130.2C495.57 120.166 472.973 122.831 472.973 122.831L397.798 123.287C397.798 123.287 392.223 122.543 388.09 124.967C384.055 127.344 381.438 132.889 381.438 132.889C381.438 132.889 369.553 163.975 353.682 190.429C320.203 246.216 306.826 249.169 301.348 245.712C288.607 237.622 291.786 213.257 291.786 195.95C291.786 141.867 300.15 119.326 275.523 113.493C267.355 111.548 261.34 110.276 240.43 110.06C213.603 109.796 190.909 110.156 178.046 116.325C169.486 120.43 162.884 129.6 166.919 130.128C171.883 130.776 183.132 133.105 189.099 141.074C196.803 151.373 196.534 174.465 196.534 174.465C196.534 174.465 200.96 238.127 186.189 246.024C176.065 251.449 162.174 240.383 132.315 189.757C117.03 163.831 105.488 135.169 105.488 135.169C105.488 135.169 103.262 129.816 99.2761 126.936C94.4585 123.455 87.7333 122.375 87.7333 122.375L16.3002 122.831C16.3002 122.831 5.56445 123.119 1.6272 127.704C-1.86987 131.761 1.35819 140.186 1.35819 140.186C1.35819 140.186 57.2868 268.637 120.625 333.378C178.706 392.719 244.637 388.83 244.637 388.83H274.521Z" fill="#9A9AAD"/>
</svg>
